<svg width="20" height="18" viewBox="0 0 28 25" fill="none" xmlns="http://www.w3.org/2000/svg">
<path d="M10.5938 23.4375V15.8672C10.5938 15.6016 10.6758 15.3867 10.8398 15.2227C11.0039 15.0586 11.2227 14.9766 11.4961 14.9766H16.5C16.7734 14.9766 16.9883 15.0586 17.1445 15.2227C17.3086 15.3867 17.3906 15.6016 17.3906 15.8672V23.4375H10.5938ZM1.00781 12.5156C0.695312 12.5156 0.449219 12.4219 0.269531 12.2344C0.0898438 12.0391 0 11.8203 0 11.5781C0 11.2734 0.125 11.0195 0.375 10.8164L12.5859 0.5625C13.0234 0.1875 13.4922 0 13.9922 0C14.4922 0 14.9609 0.1875 15.3984 0.5625L27.6094 10.8164C27.8594 11.0195 27.9844 11.2734 27.9844 11.5781C27.9844 11.8203 27.8945 12.0391 27.7148 12.2344C27.543 12.4219 27.2969 12.5156 26.9766 12.5156C26.8125 12.5156 26.6602 12.4766 26.5195 12.3984C26.3867 12.3203 26.2617 12.2344 26.1445 12.1406L14.4023 2.28516C14.2773 2.17578 14.1406 2.12109 13.9922 2.12109C13.8438 2.12109 13.707 2.17578 13.582 2.28516L1.85156 12.1406C1.72656 12.2344 1.59375 12.3203 1.45312 12.3984C1.32031 12.4766 1.17188 12.5156 1.00781 12.5156ZM21.6211 6.29297V3.49219C21.6211 3.23438 21.6992 3.03125 21.8555 2.88281C22.0117 2.72656 22.2148 2.64844 22.4648 2.64844H23.7188C23.9766 2.64844 24.1797 2.72656 24.3281 2.88281C24.4844 3.03125 24.5625 3.23438 24.5625 3.49219V8.77734L21.6211 6.29297ZM6.07031 24.6445C5.23438 24.6445 4.58203 24.418 4.11328 23.9648C3.65234 23.5195 3.42188 22.8828 3.42188 22.0547V9.07031L5.30859 7.80469V21.5859C5.30859 21.9688 5.40625 22.2578 5.60156 22.4531C5.80469 22.6562 6.09375 22.7578 6.46875 22.7578H21.5273C21.9023 22.7578 22.1875 22.6562 22.3828 22.4531C22.5781 22.2578 22.6758 21.9688 22.6758 21.5859V7.79297L24.5625 9.07031V22.0547C24.5625 22.875 24.332 23.5117 23.8711 23.9648C23.4102 24.418 22.7617 24.6445 21.9258 24.6445H6.07031Z" fill="black"/>
</svg>
