<svg width="154" height="225" viewBox="0 0 154 225" fill="none" xmlns="http://www.w3.org/2000/svg">
<path d="M42.6797 105.539C17.6484 105.539 2.74219 85.2188 2.74219 52.6641C2.74219 20.25 17.7891 0 42.6797 0C67.5 0 82.4766 20.1094 82.4766 52.5938C82.4766 85.0781 67.6406 105.539 42.6797 105.539ZM42.6797 90.7031C56.3906 90.7031 64.1953 76.7109 64.1953 52.6641C64.1953 28.8984 56.25 14.8359 42.6797 14.8359C29.0391 14.8359 21.0234 28.9688 21.0234 52.5938C21.0234 76.6406 28.8984 90.7031 42.6797 90.7031Z" fill="white" style="mix-blend-mode:soft-light"/>
<path d="M129.516 104.906C124.242 104.906 120.586 101.25 120.586 95.7656V19.6172H120.234L103.852 31.0078C102.094 32.2734 100.688 32.7656 98.7188 32.7656C94.9219 32.7656 92.1797 30.0234 92.1797 26.0156C92.1797 23.2031 93.3047 21.0938 96.3281 18.9844L117.07 4.42969C121.57 1.26562 124.383 0.632812 128.18 0.632812C134.578 0.632812 138.445 4.5 138.445 10.7578V95.7656C138.445 101.25 134.789 104.906 129.516 104.906Z" fill="white" style="mix-blend-mode:soft-light"/>
<path d="M8.57812 223.5C2.95312 223.5 0 220.406 0 215.836C0 212.32 1.19531 210.211 5.0625 206.555L36.0703 175.828C49.0078 163.031 52.2422 157.898 52.2422 150.164C52.2422 141.094 45.2812 134.555 35.5078 134.555C26.3672 134.555 19.9688 139.195 16.3828 148.336C14.5547 151.992 12.4453 153.891 8.29688 153.891C3.375 153.891 0.421875 150.867 0.421875 146.367C0.421875 145.031 0.632812 143.766 0.984375 142.57C3.72656 131.602 15.8906 120 35.6484 120C55.9688 120 69.9609 132.023 69.9609 149.039C69.9609 160.922 64.2656 168.938 47.4609 185.391L24.1875 208.312V208.664H64.6875C69.4688 208.664 72.4219 211.617 72.4219 216.117C72.4219 220.547 69.4688 223.5 64.6875 223.5H8.57812Z" fill="white" style="mix-blend-mode:soft-light"/>
<path d="M102.516 224.906C97.4531 224.906 94.2188 221.812 94.2188 217.523C94.2188 215.414 94.7109 213.867 95.7656 211.758L135.211 137.227V136.875H89.4375C84.9375 136.875 81.7031 133.922 81.7031 129.422C81.7031 124.922 84.9375 122.039 89.4375 122.039H142.734C149.203 122.039 153.633 125.836 153.633 132.234C153.633 135.539 152.578 138.352 150.117 143.133L110.672 219.633C108.703 223.5 106.453 224.906 102.516 224.906Z" fill="white" style="mix-blend-mode:soft-light"/>
</svg>
